<svg xmlns="http://www.w3.org/2000/svg" width="72" height="69">
    <path fill="#555" fill-rule="evenodd" d="M71.991 21.696a2.442 2.442 0 0 1-2.456 2.466 2.502 2.502 0 0 1-2.493-2.421l-.006.003v-6.79h-5.083l-.091 15.194c4.233 1.573 6.95 4.994 6.95 8.964v21.281h-6.907c-.238 5.024-4.395 8.133-9.504 8.133-5.108 0-9.265-3.109-9.503-8.133h-12.79c-.238 5.024-4.395 8.133-9.504 8.133-5.108 0-9.265-3.109-9.502-8.133H5.234V39.112c0-3.548 2.087-6.656 5.76-8.401V14.954H5.658v6.79l-.006-.003a2.502 2.502 0 0 1-2.493 2.421 2.441 2.441 0 0 1-2.455-2.466c0-.088-.01-.202 0-.288v-7.944c0-1.922 1.562-3.494 3.473-3.494h6.817V3.957c0-1.922 1.564-3.495 3.474-3.495h44.077c1.911 0 3.475 1.573 3.475 3.495l-.037 6.013h6.534c1.911 0 3.475 1.572 3.475 3.494v7.944c.008.086-.001.2-.001.288zm-19.59 43.003c2.459 0 4.456-1.893 4.684-4.306h-9.368c.229 2.413 2.226 4.306 4.684 4.306zm-31.797 0c2.46 0 4.456-1.893 4.684-4.306h-9.367c.228 2.413 2.225 4.306 4.683 4.306zm22.14-59.253H15.949v23.912a20.112 20.112 0 0 1 2.254-.134h38.346c.124 0 .242.011.365.014l.151-23.792H42.744zM17.847 34.229c-4.951 0-7.709 3.131-7.709 6.145v15.169h53.26V39.696c0-3.015-2.688-5.467-6.038-5.467H17.847zm33.908 12.439c-1.932 0-3.496-1.575-3.496-3.516 0-1.942 1.564-3.516 3.496-3.516 1.93 0 3.495 1.574 3.495 3.516 0 1.941-1.565 3.516-3.495 3.516zm-30.526 0c-1.93 0-3.495-1.575-3.495-3.516 0-1.942 1.565-3.516 3.495-3.516 1.93 0 3.495 1.574 3.495 3.516 0 1.941-1.565 3.516-3.495 3.516z"/>
</svg>
