<?xml version="1.0" encoding="utf-8"?>
<!-- Generator: Adobe Illustrator 23.0.1, SVG Export Plug-In . SVG Version: 6.00 Build 0)  -->
<svg version="1.1" id="Layer_1" xmlns="http://www.w3.org/2000/svg" xmlns:xlink="http://www.w3.org/1999/xlink" x="0px" y="0px"
	 viewBox="0 0 50 60" style="enable-background:new 0 0 50 60;" xml:space="preserve">
<style type="text/css">
	.st0{fill:#FFFFFF;}
	.st1{fill:#6CC2E4;}
</style>
<path class="st0" d="M38.8,60c-2.9,0-5.2-2.4-5.2-5.3v-2.9H16.7v2.9c0,2.9-2.4,5.3-5.2,5.3h-1.1c-2.9,0-5.2-2.4-5.2-5.3v-2.9H0V27.6
	L4.4,8.8l0-0.1c1.3-4,3.8-5.3,4.4-5.6C9.5,2.7,14.7,0,24.9,0c10.1,0,15.3,2.6,16,3c0.7,0.3,4.2,2,5,6.1l4,18.3v24.5h-4.8v2.9
	c0,2.9-2.4,5.3-5.2,5.3H38.8z"/>
<path class="st1" d="M48.5,27.5l-4-18.1c-0.7-3.6-4.2-5-4.2-5s-4.8-2.8-15.4-2.8S9.5,4.4,9.5,4.4S7,5.4,5.8,9.2L1.5,27.8v22.6h5.1
	c0,0,0,0,0,0.1v4.3c0,2.1,1.7,3.8,3.7,3.8h1.1c2.1,0,3.7-1.7,3.7-3.8v-4.3c0,0,0,0,0-0.1h19.9c0,0,0,0,0,0.1v4.3
	c0,2.1,1.7,3.8,3.7,3.8h1.1c2.1,0,3.7-1.7,3.7-3.8v-4.3c0,0,0,0,0-0.1h4.8V27.5z M15.5,8.5c0-0.2,0.1-0.5,0.2-0.7
	c0,0,0.2-1.9,2.4-1.7h14.4c0,0,1.8-0.2,2.2,1.6c0.1,0.3,0.1,0.5,0.1,0.7c0,0.1,0.1,1.1,0.1,1.1H15.3C15.3,9.4,15.4,8.6,15.5,8.5z
	 M10.8,43.8c-1.8,0-3.2-1.4-3.2-3.2c0-1.8,1.4-3.2,3.2-3.2c1.8,0,3.2,1.4,3.2,3.2C14,42.3,12.6,43.8,10.8,43.8z M9.8,29.5
	c0,0-0.6,0-1.2-0.7c-0.4-0.5-0.2-1.3-0.2-1.3s2-11.1,2.1-11.5c0-0.2,0.1-0.5,0.2-0.7c0,0,0.2-1.9,2.4-1.7h24.2c0,0,1.8-0.2,2.2,1.6
	c0.1,0.3,0.1,0.5,0.1,0.7c0.1,0.7,2.2,11.7,2.2,11.7s0.1,0.8-0.4,1.5c-0.4,0.5-1.3,0.5-1.3,0.5L9.8,29.5z M39.2,43.8
	c-1.8,0-3.2-1.4-3.2-3.2c0-1.8,1.4-3.2,3.2-3.2c1.8,0,3.2,1.4,3.2,3.2C42.4,42.3,41,43.8,39.2,43.8z"/>
</svg>
