<svg 
 xmlns="http://www.w3.org/2000/svg"
 xmlns:xlink="http://www.w3.org/1999/xlink"
 width="55px" height="55px">
<path fill-rule="evenodd"  fill="rgb(248, 248, 248)"
 d="M53.524,6.527 L32.311,27.740 L52.817,48.246 C53.998,49.426 53.547,51.518 52.366,52.699 C51.186,53.880 49.048,54.377 47.868,53.196 L27.362,32.690 L6.148,53.903 C4.978,55.074 3.085,54.398 1.915,53.227 C0.744,52.056 0.027,50.124 1.199,48.953 L22.412,27.740 L1.199,6.527 C0.018,5.345 0.702,3.396 1.882,2.216 C3.064,1.034 4.968,0.396 6.148,1.577 L27.362,22.791 L48.575,1.577 C49.744,0.407 51.723,1.076 52.893,2.246 C54.064,3.417 54.694,5.357 53.524,6.527 Z"/>
</svg>