<?xml version="1.0" encoding="utf-8"?>
<!-- Generator: Adobe Illustrator 23.0.1, SVG Export Plug-In . SVG Version: 6.00 Build 0)  -->
<svg version="1.1" id="Layer_1" xmlns="http://www.w3.org/2000/svg" xmlns:xlink="http://www.w3.org/1999/xlink" x="0px" y="0px"
	 viewBox="0 0 55 55" style="enable-background:new 0 0 55 55;" xml:space="preserve">
<style type="text/css">
	.st0{fill-rule:evenodd;clip-rule:evenodd;fill:#5F5F68;}
</style>
<path class="st0" d="M53.5,6.5L32.3,27.7l20.5,20.5c1.2,1.2,0.7,3.3-0.5,4.5c-1.2,1.2-3.3,1.7-4.5,0.5L27.4,32.7L6.1,53.9
	c-1.2,1.2-3.1,0.5-4.2-0.7C0.7,52.1,0,50.1,1.2,49l21.2-21.2L1.2,6.5C0,5.3,0.7,3.4,1.9,2.2C3.1,1,5,0.4,6.1,1.6l21.2,21.2L48.6,1.6
	c1.2-1.2,3.1-0.5,4.3,0.7C54.1,3.4,54.7,5.4,53.5,6.5z"/>
</svg>
