<?xml version="1.0" encoding="utf-8"?>
<!-- Generator: Adobe Illustrator 23.0.1, SVG Export Plug-In . SVG Version: 6.00 Build 0)  -->
<svg version="1.1" id="Layer_1" xmlns="http://www.w3.org/2000/svg" xmlns:xlink="http://www.w3.org/1999/xlink" x="0px" y="0px"
	 viewBox="0 0 45 50" style="enable-background:new 0 0 45 50;" xml:space="preserve">
<style type="text/css">
	.st0{fill:#B6B7B9;}
</style>
<path class="st0" d="M45,18.9L42.5,3c-0.4-3.3-3.8-3-3.8-3H6c0,0-2.7,0.1-3.4,3L0,19.2v22.9h5c0,0,0,0,0,0.1v4.2
	c0,2,1.6,3.6,3.6,3.6h1c2,0,3.6-1.6,3.6-3.6v-4.2c0,0,0,0,0-0.1h18.6c0,0,0,0,0,0.1v4.2c0,2,1.6,3.6,3.6,3.6h1c2,0,3.6-1.6,3.6-3.6
	v-4.2c0,0,0,0,0-0.1h5V18.9z M8.6,35.9c-1.7,0-3.2-1.4-3.2-3.2c0-1.7,1.4-3.2,3.2-3.2c1.7,0,3.2,1.4,3.2,3.2
	C11.7,34.5,10.3,35.9,8.6,35.9z M8.2,18.9c0,0-0.6,0-1.1-0.7c-0.3-0.5-0.2-1.3-0.2-1.3s1.3-9.1,1.4-9.5c0-0.2,0.1-0.4,0.2-0.7
	c0,0,0.2-1.8,2.3-1.6h23.8c0,0,1.8-0.2,2.1,1.5c0.1,0.2,0.1,0.5,0.1,0.6C36.8,8,38.1,17,38.1,17s0.1,0.8-0.4,1.4
	c-0.4,0.5-1.3,0.5-1.3,0.5L8.2,18.9z M36.4,35.9c-1.7,0-3.2-1.4-3.2-3.2c0-1.7,1.4-3.2,3.2-3.2c1.7,0,3.2,1.4,3.2,3.2
	C39.6,34.5,38.2,35.9,36.4,35.9z"/>
</svg>
