<svg xmlns="http://www.w3.org/2000/svg" width="28" height="36">
    <path fill="#5FB6E1" fill-rule="evenodd" d="M19.259 18.7c2.721-1.841 4.508-4.944 4.508-8.462 0-5.651-4.608-10.232-10.291-10.232-5.685 0-10.292 4.581-10.292 10.232 0 3.7 1.982 6.932 4.942 8.729C3.342 21.185.003 26.015.003 31.585v4.411l3.287-.052v-4.687c.212-5.74 4.935-10.436 10.709-10.436s10.497 4.696 10.814 10.436v4.647l3.182.092v-4.411c0-5.805-3.626-10.807-8.736-12.885zM13.476 3.085c3.973 0 7.194 3.203 7.194 7.153 0 3.95-3.221 7.152-7.194 7.152s-7.195-3.202-7.195-7.152 3.222-7.153 7.195-7.153z"/>
</svg>
