<svg xmlns="http://www.w3.org/2000/svg" width="60" height="60" viewBox="0 0 60 60">
  <defs>
    <style>
      .cls-1 {
        fill: #fefefe;
        fill-rule: evenodd;
      }
    </style>
  </defs>
  <path class="cls-1" d="M6878.99,490.991a30,30,0,1,0,30,30A30,30,0,0,0,6878.99,490.991Zm0,56.018a26.017,26.017,0,1,1,26.02-26.017A26.019,26.019,0,0,1,6878.99,547.009Zm-0.39-11.219h-0.3a2.341,2.341,0,0,1-2.34-2.34V518.2a2.342,2.342,0,0,1,2.34-2.34h0.3a2.342,2.342,0,0,1,2.34,2.34V533.45A2.341,2.341,0,0,1,6878.6,535.79Zm3.27-26.623a3.325,3.325,0,1,1-3.32-3.322A3.324,3.324,0,0,1,6881.87,509.167Z" transform="translate(-6849 -491)"/>
</svg>
