<svg xmlns="http://www.w3.org/2000/svg" width="55" height="57.719" viewBox="0 0 55 57.719">
  <defs>
    <style>
      .cls-1 {
        fill: #fefefe;
        fill-rule: evenodd;
      }
    </style>
  </defs>
  <path class="cls-1" d="M7044.62,496.186a3.8,3.8,0,0,0-2.91.224l-11.21,5a3.711,3.711,0,0,1-3.17.009l-15.01-7.032a3.728,3.728,0,0,0-3.19.015l-15.06,7.493a3.7,3.7,0,0,0-2.1,3.34v40.723c0.28,4.751,2.75,4.866,4.22,4.635a3.52,3.52,0,0,0,1.27-.473l10.76-6.441a3.706,3.706,0,0,1,3.59-.124l15.34,7.8a3.719,3.719,0,0,0,3.5-.068l14.42-8.348a3.711,3.711,0,0,0,1.9-3.234V499.526A3.552,3.552,0,0,0,7044.62,496.186Zm-1.31,43.667-14.57,8.185a0.151,0.151,0,0,1-.15,0l-18.53-9.675a0.168,0.168,0,0,0-.16,0l-13.9,8a0.164,0.164,0,0,1-.25-0.133c0.02-3.458.24-38.636-.07-40.792a0.144,0.144,0,0,1,.09-0.161l14.95-7.237a0.166,0.166,0,0,1,.14,0l18.26,8.335a0.175,0.175,0,0,0,.14,0l13.91-6.491a0.163,0.163,0,0,1,.23.146v39.681A0.172,0.172,0,0,1,7043.31,539.853Zm-32.5-5.786h0a2.281,2.281,0,0,1-2.28-2.283v-24.4a2.281,2.281,0,0,1,2.28-2.283h0a2.283,2.283,0,0,1,2.29,2.283v24.4A2.283,2.283,0,0,1,7010.81,534.067Zm17.93,6.351h0a2.281,2.281,0,0,1-2.28-2.283v-24.4a2.282,2.282,0,0,1,2.28-2.284h0a2.284,2.284,0,0,1,2.29,2.284v24.4A2.283,2.283,0,0,1,7028.74,540.418Z" transform="translate(-6991.97 -494.062)"/>
</svg>
