<svg xmlns="http://www.w3.org/2000/svg" width="62" height="63">
    <path fill="#555" fill-rule="evenodd" d="M58.406 63H3.703C1.782 63 .21 61.445.21 59.544V22.937c0-1.901 1.572-3.456 3.493-3.456l26.851 10.342 17.364-6.447V5.323H14.084v9.307l-.005-.002c-.042 1.327-1.155 2.395-2.506 2.395-1.379 0-2.469-1.076-2.469-2.44 0-.087-.01-.199-.002-.284V3.851c0-1.901 1.572-3.456 3.493-3.456h36.813c1.919 0 3.491 1.555 3.491 3.456v17.675l5.507-2.045c1.921 0 3.493 1.555 3.493 3.456v36.607c0 1.901-1.572 3.456-3.493 3.456zM30.554 35.726l-25.2-9.911.008 32.323h51.385V29.873l.035-4.058-26.228 9.911z"/>
</svg>
