<svg 
 xmlns="http://www.w3.org/2000/svg"
 xmlns:xlink="http://www.w3.org/1999/xlink"
 width="55px" height="55px">
<path fill-rule="evenodd"  fill="rgb(254, 254, 254)"
 d="M27.493,54.999 C12.305,54.999 -0.009,42.687 -0.009,27.498 C-0.009,12.309 12.305,-0.003 27.493,-0.003 C42.681,-0.003 54.994,12.309 54.994,27.498 C54.994,42.687 42.681,54.999 27.493,54.999 ZM27.493,3.017 C13.972,3.017 3.012,13.978 3.012,27.498 C3.012,41.018 13.972,51.979 27.493,51.979 C41.013,51.979 51.973,41.018 51.973,27.498 C51.973,13.978 41.013,3.017 27.493,3.017 ZM29.324,44.427 L25.724,44.427 L25.724,29.933 L11.166,29.933 L11.166,26.332 L25.724,26.332 L25.724,11.838 L29.324,11.838 L29.324,26.332 L43.754,26.332 L43.754,29.933 L29.324,29.933 L29.324,44.427 Z"/>
</svg>