<svg 
 xmlns="http://www.w3.org/2000/svg"
 xmlns:xlink="http://www.w3.org/1999/xlink"
 width="32px" height="42px">
<path fill-rule="evenodd"  fill="rgb(254, 254, 254)"
 d="M31.303,12.493 C31.303,12.493 29.952,1.190 17.481,0.227 L14.660,0.227 C14.660,0.227 2.585,-0.000 0.554,12.474 C0.554,12.474 -0.123,16.217 2.247,20.299 C4.616,24.381 13.532,40.031 13.532,40.031 C13.532,40.031 15.788,44.000 18.383,40.031 L30.232,19.845 C30.232,19.845 31.886,16.931 31.303,12.493 ZM15.962,22.225 C12.006,22.225 8.798,19.027 8.798,15.082 C8.798,11.137 12.006,7.939 15.962,7.939 C19.921,7.939 23.128,11.137 23.128,15.082 C23.128,19.027 19.921,22.225 15.962,22.225 Z"/>
</svg>