<svg 
 xmlns="http://www.w3.org/2000/svg"
 xmlns:xlink="http://www.w3.org/1999/xlink"
 width="60px" height="46px">
<path fill-rule="evenodd"  fill="rgb(95, 95, 104)"
 d="M56.609,46.000 L3.390,46.000 C1.517,46.000 0.000,44.482 0.000,42.610 L0.000,41.782 C0.000,39.910 1.517,38.391 3.390,38.391 L56.609,38.391 C58.482,38.391 60.000,39.910 60.000,41.782 L60.000,42.610 C60.000,44.482 58.482,46.000 56.609,46.000 ZM56.609,26.331 L3.390,26.331 C1.517,26.331 0.000,24.813 0.000,22.940 L0.000,22.113 C0.000,20.240 1.517,18.722 3.390,18.722 L56.609,18.722 C58.482,18.722 60.000,20.240 60.000,22.113 L60.000,22.940 C60.000,24.813 58.482,26.331 56.609,26.331 ZM56.604,7.608 L3.396,7.608 C1.520,7.608 0.000,6.087 0.000,4.212 L0.000,3.397 C0.000,1.521 1.520,-0.000 3.396,-0.000 L56.604,-0.000 C58.480,-0.000 60.000,1.521 60.000,3.397 L60.000,4.212 C60.000,6.087 58.480,7.608 56.604,7.608 Z"/>
</svg>