<?xml version="1.0" encoding="utf-8"?>
<!-- Generator: Adobe Illustrator 23.0.1, SVG Export Plug-In . SVG Version: 6.00 Build 0)  -->
<svg version="1.1" id="Layer_1" xmlns="http://www.w3.org/2000/svg" xmlns:xlink="http://www.w3.org/1999/xlink" x="0px" y="0px"
	 viewBox="0 0 220 50" style="enable-background:new 0 0 220 50;" xml:space="preserve">
<style type="text/css">
	.st0{fill:#474747;}
</style>
<g>
	<path class="st0" d="M165.1,21.7l-6.8,0h-4.3v25.5h0c0,0,0,0,0,0c0,1.6,1.4,2.9,3.1,2.9c1.7,0,3.1-1.3,3.1-2.9c0,0,0,0,0,0h0v-8.4
		h4.9c6,0,9.5-3.3,9.5-8.7C174.7,24.6,171.3,21.7,165.1,21.7z M164.8,33.5h-4.6v-6.6h4.6c2.2,0,3.4,1.1,3.4,3.2
		C168.3,32.3,167,33.5,164.8,33.5z"/>
	<path class="st0" d="M212.9,21.7l-5.2,9.5l-5.3-9.5h-7.1l9.3,15.4l0.1,10.1l0,0c0,1.6,1.4,2.9,3.1,2.9c1.7,0,3.1-1.3,3.1-2.9
		c0,0,0,0,0,0h0V37l9.2-15.4H212.9z"/>
	<path class="st0" d="M198.5,46.1C198.5,46.1,198.5,46.1,198.5,46.1L198.5,46.1l-1.7-5l0,0l-6.6-19.5h-8.5l-8.1,24.1h0l-0.1,0.2l0,0
		c0,0,0,0,0,0c-0.5,1.5,0.4,3.2,2,3.8c1.6,0.5,3.5-0.4,4-1.9c0,0,0,0,0-0.1l0,0l0.6-2.2l1.4-4.6h8.9l1.7,5.8l0,0l0.3,1l0,0
		c0,0,0,0,0,0.1c0.5,1.5,2.4,2.5,4,1.9C198.1,49.3,199,47.6,198.5,46.1z M183,35.9l2.9-9.1l3,9.1H183z"/>
</g>
<g>
	<g>
		<path class="st0" d="M25,0C10.5,0,0,11.2,0,25c0,13.8,10.5,25,25,25c14.5,0,25-11.2,25-25C50,11.2,39.5,0,25,0z M25,40.6
			C16.3,40.6,9.9,34,9.9,25c0-9,6.4-15.6,15.1-15.6c8.7,0,15.1,6.6,15.1,15.6C40.1,34,33.7,40.6,25,40.6z M92.3,25
			c0,0-0.1-0.1-0.1-0.1c1.8-1.6,3.3-3.4,4.5-5.4c1.9-3.2,3-6.9,3-10.9V5.4c0-3-2.5-5.4-5.6-5.4c-3.1,0-5.6,2.4-5.6,5.4v3.1
			c0,6-4.9,10.8-11,10.9c-6.1-0.1-11-4.9-11-10.9V5.4c0-3-2.5-5.4-5.6-5.4c-3.1,0-5.6,2.4-5.6,5.4v3.1c0,4,1.1,7.7,3,10.9
			c1.2,2,2.7,3.9,4.5,5.4c0,0-0.1,0.1-0.1,0.1c-1.8,1.6-3.4,3.4-4.6,5.5c-1.9,3.2-3,6.9-3,10.9v3.1c0,3,2.5,5.4,5.6,5.4
			c3.1,0,5.6-2.4,5.6-5.4v-3.1c0-6,5-10.9,11.1-10.9c0,0,0.1,0,0.1,0c0,0,0.1,0,0.1,0c6.1,0,11.1,4.9,11.1,10.9v3.1
			c0,3,2.5,5.4,5.6,5.4c3.1,0,5.6-2.4,5.6-5.4v-3.1c0-4-1.1-7.7-3-10.9C95.7,28.4,94.1,26.6,92.3,25z M144.4,0
			c-3.1,0-5.6,2.4-5.6,5.4v3.1c0,6-4.9,10.8-11,10.9c0,0-0.1,0-0.1,0c0,0-0.1,0-0.1,0c-6.1-0.1-11-4.9-11-10.9V5.4
			c0-3-2.5-5.4-5.6-5.4c-3.1,0-5.6,2.4-5.6,5.4v3.1c0,4,1.1,7.7,3,10.9c1.2,2.1,2.8,3.9,4.6,5.5l-0.2,0.1c0,0,0.3,0.2,0.8,0.5
			c1.2,0.9,4,2.9,8.5,4.1v14.9c0,3,2.5,5.4,5.6,5.4c3.1,0,5.6-2.4,5.6-5.4V29.6c4.4-1.2,7.3-3.2,8.5-4.1c0.5-0.3,0.8-0.5,0.8-0.5
			l-0.2-0.1c1.8-1.6,3.4-3.4,4.6-5.5c1.9-3.2,3-6.9,3-10.9V5.4C150,2.4,147.5,0,144.4,0z"/>
	</g>
</g>
</svg>
